<svg xmlns="http://www.w3.org/2000/svg" width="500" height="500" viewBox="0 0 500 500">
<g>
<path d="M 192.63 436.41 C172.55,431.55 156.28,412.74 150.53,387.71 C149.68,384.02 148.27,364.90 147.04,340.50 C141.32,226.27 139.91,198.00 138.52,169.50 C137.69,152.45 136.75,132.65 136.44,125.50 C136.12,118.35 135.70,111.26 135.52,109.75 L 135.17 107.00 L 250.12 107.00 L 365.07 107.00 L 364.52 111.75 C364.21,114.36 363.06,135.40 361.96,158.50 C360.86,181.60 359.06,218.50 357.97,240.50 C356.87,262.50 355.31,294.00 354.49,310.50 C353.68,327.00 352.55,349.71 351.98,360.96 C350.90,382.40 349.66,389.96 345.59,399.98 C337.53,419.80 323.46,432.89 306.27,436.53 C296.49,438.60 201.27,438.50 192.63,436.41 ZM 213.78 382.41 C219.23,378.84 219.06,382.96 218.77,265.01 L 218.50 156.04 L 215.45 152.99 C211.59,149.13 206.52,148.19 201.76,150.44 C194.42,153.93 194.87,145.83 195.20,268.15 C195.50,376.16 195.53,377.82 197.50,380.03 C201.89,384.95 208.44,385.90 213.78,382.41 ZM 257.00 382.14 C258.38,381.13 260.06,379.23 260.74,377.90 C261.69,376.04 261.97,351.15 261.99,267.15 C262.00,146.60 262.42,153.85 255.29,150.47 C250.48,148.19 245.43,149.11 241.55,152.99 L 238.50 156.04 L 238.25 265.77 C238.00,374.39 238.01,375.53 240.02,378.81 C243.70,384.83 251.30,386.32 257.00,382.14 ZM 297.51 383.56 C299.41,382.77 301.86,380.63 302.97,378.81 C304.97,375.54 304.99,374.06 305.00,266.65 C305.00,165.85 304.87,157.60 303.29,154.92 C299.40,148.33 290.16,147.38 284.55,152.99 L 281.50 156.04 L 281.50 266.45 L 281.50 376.85 L 283.59 379.68 C284.75,381.23 287.22,383.04 289.09,383.69 C293.52,385.24 293.48,385.24 297.51,383.56 ZM 161.83 97.00 C138.37,96.72 118.96,96.28 118.72,96.00 C115.04,91.89 115.41,81.27 119.31,78.79 C119.97,78.37 138.79,78.02 161.15,78.02 L 201.81 78.00 L 207.15 70.03 L 212.50 62.07 L 250.00 62.06 L 287.50 62.05 L 292.76 70.02 L 298.01 78.00 L 338.76 78.02 C361.16,78.02 380.00,78.36 380.60,78.77 C385.44,82.00 384.88,94.95 379.83,96.56 C377.41,97.32 217.29,97.65 161.83,97.00 Z" fill="rgba(35,36,38,1)"/>
</g>
</svg>